<mxfile host="app.diagrams.net" agent="Mozilla/5.0 (Windows NT 10.0; Win64; x64) AppleWebKit/537.36 (KHTML, like Gecko) Chrome/138.0.0.0 Safari/537.36" version="28.0.6">
  <diagram name="Página-1" id="jac7WTCRPaaS2X6n4jjW">
    <mxGraphModel dx="1303" dy="703" grid="1" gridSize="10" guides="1" tooltips="1" connect="1" arrows="1" fold="1" page="1" pageScale="1" pageWidth="827" pageHeight="1169" math="0" shadow="0">
      <root>
        <mxCell id="0" />
        <mxCell id="1" parent="0" />
        <mxCell id="02i46-6rcfDN1O0ltRC7-1" value="Usuario" style="swimlane;fontStyle=0;childLayout=stackLayout;horizontal=1;startSize=30;horizontalStack=0;resizeParent=1;resizeParentMax=0;resizeLast=0;collapsible=1;marginBottom=0;whiteSpace=wrap;html=1;" parent="1" vertex="1">
          <mxGeometry x="300" y="40" width="140" height="180" as="geometry" />
        </mxCell>
        <mxCell id="02i46-6rcfDN1O0ltRC7-2" value="nombre: String" style="text;strokeColor=none;fillColor=none;align=left;verticalAlign=middle;spacingLeft=4;spacingRight=4;overflow=hidden;points=[[0,0.5],[1,0.5]];portConstraint=eastwest;rotatable=0;whiteSpace=wrap;html=1;" parent="02i46-6rcfDN1O0ltRC7-1" vertex="1">
          <mxGeometry y="30" width="140" height="30" as="geometry" />
        </mxCell>
        <mxCell id="02i46-6rcfDN1O0ltRC7-3" value="apellido: String" style="text;strokeColor=none;fillColor=none;align=left;verticalAlign=middle;spacingLeft=4;spacingRight=4;overflow=hidden;points=[[0,0.5],[1,0.5]];portConstraint=eastwest;rotatable=0;whiteSpace=wrap;html=1;" parent="02i46-6rcfDN1O0ltRC7-1" vertex="1">
          <mxGeometry y="60" width="140" height="30" as="geometry" />
        </mxCell>
        <mxCell id="02i46-6rcfDN1O0ltRC7-4" value="email: string" style="text;strokeColor=none;fillColor=none;align=left;verticalAlign=middle;spacingLeft=4;spacingRight=4;overflow=hidden;points=[[0,0.5],[1,0.5]];portConstraint=eastwest;rotatable=0;whiteSpace=wrap;html=1;" parent="02i46-6rcfDN1O0ltRC7-1" vertex="1">
          <mxGeometry y="90" width="140" height="30" as="geometry" />
        </mxCell>
        <mxCell id="02i46-6rcfDN1O0ltRC7-5" value="contraseña: String" style="text;strokeColor=none;fillColor=none;align=left;verticalAlign=middle;spacingLeft=4;spacingRight=4;overflow=hidden;points=[[0,0.5],[1,0.5]];portConstraint=eastwest;rotatable=0;whiteSpace=wrap;html=1;" parent="02i46-6rcfDN1O0ltRC7-1" vertex="1">
          <mxGeometry y="120" width="140" height="30" as="geometry" />
        </mxCell>
        <mxCell id="02i46-6rcfDN1O0ltRC7-6" value="rol: String" style="text;strokeColor=none;fillColor=none;align=left;verticalAlign=middle;spacingLeft=4;spacingRight=4;overflow=hidden;points=[[0,0.5],[1,0.5]];portConstraint=eastwest;rotatable=0;whiteSpace=wrap;html=1;" parent="02i46-6rcfDN1O0ltRC7-1" vertex="1">
          <mxGeometry y="150" width="140" height="30" as="geometry" />
        </mxCell>
        <mxCell id="02i46-6rcfDN1O0ltRC7-7" value="Cliente" style="swimlane;fontStyle=0;childLayout=stackLayout;horizontal=1;startSize=30;horizontalStack=0;resizeParent=1;resizeParentMax=0;resizeLast=0;collapsible=1;marginBottom=0;whiteSpace=wrap;html=1;" parent="1" vertex="1">
          <mxGeometry x="100" y="279.79" width="140" height="60" as="geometry" />
        </mxCell>
        <mxCell id="02i46-6rcfDN1O0ltRC7-39" value="Contacto: string" style="text;strokeColor=none;fillColor=none;align=left;verticalAlign=middle;spacingLeft=4;spacingRight=4;overflow=hidden;points=[[0,0.5],[1,0.5]];portConstraint=eastwest;rotatable=0;whiteSpace=wrap;html=1;" parent="02i46-6rcfDN1O0ltRC7-7" vertex="1">
          <mxGeometry y="30" width="140" height="30" as="geometry" />
        </mxCell>
        <mxCell id="02i46-6rcfDN1O0ltRC7-11" value="Peluquero" style="swimlane;fontStyle=0;childLayout=stackLayout;horizontal=1;startSize=30;horizontalStack=0;resizeParent=1;resizeParentMax=0;resizeLast=0;collapsible=1;marginBottom=0;whiteSpace=wrap;html=1;" parent="1" vertex="1">
          <mxGeometry x="325" y="279.79" width="210" height="60" as="geometry" />
        </mxCell>
        <mxCell id="02i46-6rcfDN1O0ltRC7-12" value="disponibilidad: Disponibilidad" style="text;strokeColor=none;fillColor=none;align=left;verticalAlign=middle;spacingLeft=4;spacingRight=4;overflow=hidden;points=[[0,0.5],[1,0.5]];portConstraint=eastwest;rotatable=0;whiteSpace=wrap;html=1;" parent="02i46-6rcfDN1O0ltRC7-11" vertex="1">
          <mxGeometry y="30" width="210" height="30" as="geometry" />
        </mxCell>
        <mxCell id="02i46-6rcfDN1O0ltRC7-23" value="Reserva" style="swimlane;fontStyle=0;childLayout=stackLayout;horizontal=1;startSize=30;horizontalStack=0;resizeParent=1;resizeParentMax=0;resizeLast=0;collapsible=1;marginBottom=0;whiteSpace=wrap;html=1;" parent="1" vertex="1">
          <mxGeometry x="100" y="419.79" width="140" height="180" as="geometry" />
        </mxCell>
        <mxCell id="02i46-6rcfDN1O0ltRC7-25" value="peluquero: Peluquero" style="text;strokeColor=none;fillColor=none;align=left;verticalAlign=middle;spacingLeft=4;spacingRight=4;overflow=hidden;points=[[0,0.5],[1,0.5]];portConstraint=eastwest;rotatable=0;whiteSpace=wrap;html=1;" parent="02i46-6rcfDN1O0ltRC7-23" vertex="1">
          <mxGeometry y="30" width="140" height="30" as="geometry" />
        </mxCell>
        <mxCell id="02i46-6rcfDN1O0ltRC7-26" value="servicio: Servicio" style="text;strokeColor=none;fillColor=none;align=left;verticalAlign=middle;spacingLeft=4;spacingRight=4;overflow=hidden;points=[[0,0.5],[1,0.5]];portConstraint=eastwest;rotatable=0;whiteSpace=wrap;html=1;" parent="02i46-6rcfDN1O0ltRC7-23" vertex="1">
          <mxGeometry y="60" width="140" height="30" as="geometry" />
        </mxCell>
        <mxCell id="02i46-6rcfDN1O0ltRC7-28" value="cliente: Cliente" style="text;strokeColor=none;fillColor=none;align=left;verticalAlign=middle;spacingLeft=4;spacingRight=4;overflow=hidden;points=[[0,0.5],[1,0.5]];portConstraint=eastwest;rotatable=0;whiteSpace=wrap;html=1;" parent="02i46-6rcfDN1O0ltRC7-23" vertex="1">
          <mxGeometry y="90" width="140" height="30" as="geometry" />
        </mxCell>
        <mxCell id="02i46-6rcfDN1O0ltRC7-27" value="fechaHora: datatime" style="text;strokeColor=none;fillColor=none;align=left;verticalAlign=middle;spacingLeft=4;spacingRight=4;overflow=hidden;points=[[0,0.5],[1,0.5]];portConstraint=eastwest;rotatable=0;whiteSpace=wrap;html=1;" parent="02i46-6rcfDN1O0ltRC7-23" vertex="1">
          <mxGeometry y="120" width="140" height="30" as="geometry" />
        </mxCell>
        <mxCell id="EMgCMiisTYVv917J5Dsw-2" value="estado: String" style="text;strokeColor=none;fillColor=none;align=left;verticalAlign=middle;spacingLeft=4;spacingRight=4;overflow=hidden;points=[[0,0.5],[1,0.5]];portConstraint=eastwest;rotatable=0;whiteSpace=wrap;html=1;" parent="02i46-6rcfDN1O0ltRC7-23" vertex="1">
          <mxGeometry y="150" width="140" height="30" as="geometry" />
        </mxCell>
        <mxCell id="02i46-6rcfDN1O0ltRC7-29" value="Servicios" style="swimlane;fontStyle=0;childLayout=stackLayout;horizontal=1;startSize=30;horizontalStack=0;resizeParent=1;resizeParentMax=0;resizeLast=0;collapsible=1;marginBottom=0;whiteSpace=wrap;html=1;" parent="1" vertex="1">
          <mxGeometry x="350" y="449.79" width="140" height="150" as="geometry" />
        </mxCell>
        <mxCell id="02i46-6rcfDN1O0ltRC7-30" value="nombre: string" style="text;strokeColor=none;fillColor=none;align=left;verticalAlign=middle;spacingLeft=4;spacingRight=4;overflow=hidden;points=[[0,0.5],[1,0.5]];portConstraint=eastwest;rotatable=0;whiteSpace=wrap;html=1;" parent="02i46-6rcfDN1O0ltRC7-29" vertex="1">
          <mxGeometry y="30" width="140" height="30" as="geometry" />
        </mxCell>
        <mxCell id="02i46-6rcfDN1O0ltRC7-31" value="descripción: string" style="text;strokeColor=none;fillColor=none;align=left;verticalAlign=middle;spacingLeft=4;spacingRight=4;overflow=hidden;points=[[0,0.5],[1,0.5]];portConstraint=eastwest;rotatable=0;whiteSpace=wrap;html=1;" parent="02i46-6rcfDN1O0ltRC7-29" vertex="1">
          <mxGeometry y="60" width="140" height="30" as="geometry" />
        </mxCell>
        <mxCell id="02i46-6rcfDN1O0ltRC7-32" value="precio: float" style="text;strokeColor=none;fillColor=none;align=left;verticalAlign=middle;spacingLeft=4;spacingRight=4;overflow=hidden;points=[[0,0.5],[1,0.5]];portConstraint=eastwest;rotatable=0;whiteSpace=wrap;html=1;" parent="02i46-6rcfDN1O0ltRC7-29" vertex="1">
          <mxGeometry y="90" width="140" height="30" as="geometry" />
        </mxCell>
        <mxCell id="02i46-6rcfDN1O0ltRC7-33" value="duración: int" style="text;strokeColor=none;fillColor=none;align=left;verticalAlign=middle;spacingLeft=4;spacingRight=4;overflow=hidden;points=[[0,0.5],[1,0.5]];portConstraint=eastwest;rotatable=0;whiteSpace=wrap;html=1;" parent="02i46-6rcfDN1O0ltRC7-29" vertex="1">
          <mxGeometry y="120" width="140" height="30" as="geometry" />
        </mxCell>
        <mxCell id="02i46-6rcfDN1O0ltRC7-34" value="Disponibilidad" style="swimlane;fontStyle=0;childLayout=stackLayout;horizontal=1;startSize=30;horizontalStack=0;resizeParent=1;resizeParentMax=0;resizeLast=0;collapsible=1;marginBottom=0;whiteSpace=wrap;html=1;" parent="1" vertex="1">
          <mxGeometry x="540" y="434.79" width="140" height="180" as="geometry" />
        </mxCell>
        <mxCell id="EMgCMiisTYVv917J5Dsw-4" value="peluquero: Peluquero" style="text;strokeColor=none;fillColor=none;align=left;verticalAlign=middle;spacingLeft=4;spacingRight=4;overflow=hidden;points=[[0,0.5],[1,0.5]];portConstraint=eastwest;rotatable=0;whiteSpace=wrap;html=1;" parent="02i46-6rcfDN1O0ltRC7-34" vertex="1">
          <mxGeometry y="30" width="140" height="30" as="geometry" />
        </mxCell>
        <mxCell id="02i46-6rcfDN1O0ltRC7-35" value="día: date" style="text;strokeColor=none;fillColor=none;align=left;verticalAlign=middle;spacingLeft=4;spacingRight=4;overflow=hidden;points=[[0,0.5],[1,0.5]];portConstraint=eastwest;rotatable=0;whiteSpace=wrap;html=1;" parent="02i46-6rcfDN1O0ltRC7-34" vertex="1">
          <mxGeometry y="60" width="140" height="30" as="geometry" />
        </mxCell>
        <mxCell id="02i46-6rcfDN1O0ltRC7-36" value="horaInicio: time" style="text;strokeColor=none;fillColor=none;align=left;verticalAlign=middle;spacingLeft=4;spacingRight=4;overflow=hidden;points=[[0,0.5],[1,0.5]];portConstraint=eastwest;rotatable=0;whiteSpace=wrap;html=1;" parent="02i46-6rcfDN1O0ltRC7-34" vertex="1">
          <mxGeometry y="90" width="140" height="30" as="geometry" />
        </mxCell>
        <mxCell id="02i46-6rcfDN1O0ltRC7-37" value="horaFin: time" style="text;strokeColor=none;fillColor=none;align=left;verticalAlign=middle;spacingLeft=4;spacingRight=4;overflow=hidden;points=[[0,0.5],[1,0.5]];portConstraint=eastwest;rotatable=0;whiteSpace=wrap;html=1;" parent="02i46-6rcfDN1O0ltRC7-34" vertex="1">
          <mxGeometry y="120" width="140" height="30" as="geometry" />
        </mxCell>
        <mxCell id="EMgCMiisTYVv917J5Dsw-5" value="activo: Booleano" style="text;strokeColor=none;fillColor=none;align=left;verticalAlign=middle;spacingLeft=4;spacingRight=4;overflow=hidden;points=[[0,0.5],[1,0.5]];portConstraint=eastwest;rotatable=0;whiteSpace=wrap;html=1;" parent="02i46-6rcfDN1O0ltRC7-34" vertex="1">
          <mxGeometry y="150" width="140" height="30" as="geometry" />
        </mxCell>
        <mxCell id="02i46-6rcfDN1O0ltRC7-40" value="" style="endArrow=classic;html=1;rounded=0;exitX=1;exitY=0;exitDx=0;exitDy=0;entryX=0.027;entryY=1.022;entryDx=0;entryDy=0;entryPerimeter=0;" parent="1" source="02i46-6rcfDN1O0ltRC7-7" target="02i46-6rcfDN1O0ltRC7-6" edge="1">
          <mxGeometry width="50" height="50" relative="1" as="geometry">
            <mxPoint x="600" y="319.79" as="sourcePoint" />
            <mxPoint x="359.44000000000005" y="220.00000000000003" as="targetPoint" />
          </mxGeometry>
        </mxCell>
        <mxCell id="02i46-6rcfDN1O0ltRC7-41" value="" style="endArrow=classic;html=1;rounded=0;entryX=0.774;entryY=1.053;entryDx=0;entryDy=0;entryPerimeter=0;exitX=0.5;exitY=0;exitDx=0;exitDy=0;" parent="1" source="02i46-6rcfDN1O0ltRC7-11" target="02i46-6rcfDN1O0ltRC7-6" edge="1">
          <mxGeometry width="50" height="50" relative="1" as="geometry">
            <mxPoint x="600" y="319.79" as="sourcePoint" />
            <mxPoint x="431.4000000000001" y="223.17999999999998" as="targetPoint" />
          </mxGeometry>
        </mxCell>
        <mxCell id="02i46-6rcfDN1O0ltRC7-44" value="" style="endArrow=none;html=1;rounded=0;entryX=0.084;entryY=0.015;entryDx=0;entryDy=0;entryPerimeter=0;exitX=0.5;exitY=0;exitDx=0;exitDy=0;" parent="1" source="02i46-6rcfDN1O0ltRC7-23" target="02i46-6rcfDN1O0ltRC7-46" edge="1">
          <mxGeometry width="50" height="50" relative="1" as="geometry">
            <mxPoint x="600" y="519.79" as="sourcePoint" />
            <mxPoint x="650" y="469.79" as="targetPoint" />
          </mxGeometry>
        </mxCell>
        <mxCell id="02i46-6rcfDN1O0ltRC7-45" value="realiza" style="text;html=1;align=center;verticalAlign=middle;resizable=0;points=[];autosize=1;strokeColor=none;fillColor=none;" parent="1" vertex="1">
          <mxGeometry x="115" y="367.79" width="60" height="30" as="geometry" />
        </mxCell>
        <mxCell id="02i46-6rcfDN1O0ltRC7-46" value="1" style="text;html=1;align=center;verticalAlign=middle;resizable=0;points=[];autosize=1;strokeColor=none;fillColor=none;" parent="1" vertex="1">
          <mxGeometry x="165" y="337.79" width="30" height="30" as="geometry" />
        </mxCell>
        <mxCell id="02i46-6rcfDN1O0ltRC7-47" value="1..*" style="text;html=1;align=center;verticalAlign=middle;resizable=0;points=[];autosize=1;strokeColor=none;fillColor=none;" parent="1" vertex="1">
          <mxGeometry x="170" y="389.79" width="40" height="30" as="geometry" />
        </mxCell>
        <mxCell id="02i46-6rcfDN1O0ltRC7-48" value="" style="endArrow=none;html=1;rounded=0;entryX=0;entryY=0.5;entryDx=0;entryDy=0;exitX=1;exitY=0;exitDx=0;exitDy=0;" parent="1" source="02i46-6rcfDN1O0ltRC7-23" target="02i46-6rcfDN1O0ltRC7-12" edge="1">
          <mxGeometry width="50" height="50" relative="1" as="geometry">
            <mxPoint x="510" y="459.79" as="sourcePoint" />
            <mxPoint x="560" y="409.79" as="targetPoint" />
          </mxGeometry>
        </mxCell>
        <mxCell id="02i46-6rcfDN1O0ltRC7-49" value="disponible" style="text;html=1;align=center;verticalAlign=middle;resizable=0;points=[];autosize=1;strokeColor=none;fillColor=none;" parent="1" vertex="1">
          <mxGeometry x="270" y="367.79" width="80" height="30" as="geometry" />
        </mxCell>
        <mxCell id="02i46-6rcfDN1O0ltRC7-50" value="1" style="text;html=1;align=center;verticalAlign=middle;resizable=0;points=[];autosize=1;strokeColor=none;fillColor=none;" parent="1" vertex="1">
          <mxGeometry x="285" y="317.79" width="30" height="30" as="geometry" />
        </mxCell>
        <mxCell id="02i46-6rcfDN1O0ltRC7-51" value="0..*" style="text;html=1;align=center;verticalAlign=middle;resizable=0;points=[];autosize=1;strokeColor=none;fillColor=none;" parent="1" vertex="1">
          <mxGeometry x="240" y="419.79" width="40" height="30" as="geometry" />
        </mxCell>
        <mxCell id="02i46-6rcfDN1O0ltRC7-52" value="" style="endArrow=none;html=1;rounded=0;exitX=1;exitY=0.5;exitDx=0;exitDy=0;entryX=0;entryY=0.5;entryDx=0;entryDy=0;" parent="1" source="02i46-6rcfDN1O0ltRC7-26" target="02i46-6rcfDN1O0ltRC7-30" edge="1">
          <mxGeometry width="50" height="50" relative="1" as="geometry">
            <mxPoint x="600" y="519.79" as="sourcePoint" />
            <mxPoint x="650" y="469.79" as="targetPoint" />
          </mxGeometry>
        </mxCell>
        <mxCell id="02i46-6rcfDN1O0ltRC7-53" value="incluye" style="text;html=1;align=center;verticalAlign=middle;resizable=0;points=[];autosize=1;strokeColor=none;fillColor=none;" parent="1" vertex="1">
          <mxGeometry x="265" y="467.79" width="60" height="30" as="geometry" />
        </mxCell>
        <mxCell id="02i46-6rcfDN1O0ltRC7-54" value="1" style="text;html=1;align=center;verticalAlign=middle;resizable=0;points=[];autosize=1;strokeColor=none;fillColor=none;" parent="1" vertex="1">
          <mxGeometry x="320" y="497.79" width="30" height="30" as="geometry" />
        </mxCell>
        <mxCell id="02i46-6rcfDN1O0ltRC7-55" value="1" style="text;html=1;align=center;verticalAlign=middle;resizable=0;points=[];autosize=1;strokeColor=none;fillColor=none;" parent="1" vertex="1">
          <mxGeometry x="240" y="497.79" width="30" height="30" as="geometry" />
        </mxCell>
        <mxCell id="02i46-6rcfDN1O0ltRC7-56" value="" style="endArrow=none;html=1;rounded=0;entryX=0.852;entryY=1.033;entryDx=0;entryDy=0;entryPerimeter=0;exitX=0.25;exitY=0;exitDx=0;exitDy=0;" parent="1" source="02i46-6rcfDN1O0ltRC7-34" target="02i46-6rcfDN1O0ltRC7-12" edge="1">
          <mxGeometry width="50" height="50" relative="1" as="geometry">
            <mxPoint x="600" y="519.79" as="sourcePoint" />
            <mxPoint x="650" y="469.79" as="targetPoint" />
          </mxGeometry>
        </mxCell>
        <mxCell id="02i46-6rcfDN1O0ltRC7-57" value="tiene" style="text;html=1;align=center;verticalAlign=middle;resizable=0;points=[];autosize=1;strokeColor=none;fillColor=none;" parent="1" vertex="1">
          <mxGeometry x="535" y="367.79" width="50" height="30" as="geometry" />
        </mxCell>
        <mxCell id="02i46-6rcfDN1O0ltRC7-58" value="1" style="text;html=1;align=center;verticalAlign=middle;resizable=0;points=[];autosize=1;strokeColor=none;fillColor=none;" parent="1" vertex="1">
          <mxGeometry x="475" y="337.79" width="30" height="30" as="geometry" />
        </mxCell>
        <mxCell id="02i46-6rcfDN1O0ltRC7-59" value="1..*" style="text;html=1;align=center;verticalAlign=middle;resizable=0;points=[];autosize=1;strokeColor=none;fillColor=none;" parent="1" vertex="1">
          <mxGeometry x="530" y="409.79" width="40" height="30" as="geometry" />
        </mxCell>
        <mxCell id="EMgCMiisTYVv917J5Dsw-6" value="1" style="text;html=1;align=center;verticalAlign=middle;resizable=0;points=[];autosize=1;strokeColor=none;fillColor=none;" parent="1" vertex="1">
          <mxGeometry x="384" y="219.79" width="30" height="30" as="geometry" />
        </mxCell>
        <mxCell id="EMgCMiisTYVv917J5Dsw-7" value="1" style="text;html=1;align=center;verticalAlign=middle;resizable=0;points=[];autosize=1;strokeColor=none;fillColor=none;" parent="1" vertex="1">
          <mxGeometry x="430" y="249.79" width="30" height="30" as="geometry" />
        </mxCell>
        <mxCell id="EMgCMiisTYVv917J5Dsw-8" value="1" style="text;html=1;align=center;verticalAlign=middle;resizable=0;points=[];autosize=1;strokeColor=none;fillColor=none;" parent="1" vertex="1">
          <mxGeometry x="275" y="198" width="30" height="30" as="geometry" />
        </mxCell>
        <mxCell id="EMgCMiisTYVv917J5Dsw-9" value="1" style="text;html=1;align=center;verticalAlign=middle;resizable=0;points=[];autosize=1;strokeColor=none;fillColor=none;" parent="1" vertex="1">
          <mxGeometry x="240" y="268" width="30" height="30" as="geometry" />
        </mxCell>
      </root>
    </mxGraphModel>
  </diagram>
</mxfile>
